<svg xmlns="http://www.w3.org/2000/svg" viewBox="0 0 100 100" width="100px" height="100px"><path fill="#c7ede6" d="M88.704,55.677c0.3-0.616,0.566-1.264,0.796-1.943c2.633-7.77-1.349-17.078-9.733-19.325C78.86,23.026,70.86,15.216,61.826,13.884c-10.341-1.525-19.814,5.044-22.966,15.485c-3.799-1.346-7.501-1.182-10.99,0.857c-1.583,0.732-3.031,1.812-4.33,3.233c-1.907,2.086-3.147,4.719-3.652,7.495c-0.748,0.118-1.483,0.236-2.176,0.484c-4.04,1.449-6.589,4.431-7.288,8.923c-0.435,2.797,0.443,5.587,0.933,6.714c1.935,4.455,6.422,6.98,10.981,6.312c0.227-0.033,0.557,0.069,0.752,0.233c0.241,7.12,3.698,13.417,8.884,17.014c8.321,5.772,19.027,3.994,25.781-3.921c2.894,2.96,6.338,4.398,10.384,3.876c4.023-0.519,7.147-2.739,9.426-6.349c1.053,0.283,2.051,0.691,3.083,0.804c4.042,0.442,7.324-1.165,9.732-4.8c0.922-1.391,1.793-3.194,1.793-6.354C92.174,60.634,90.88,57.667,88.704,55.677z"/><path fill="#fff" d="M18.368 47.713H8.338c-.276 0-.5-.224-.5-.5s.224-.5.5-.5h10.03c.276 0 .5.224.5.5S18.645 47.713 18.368 47.713zM21.25 47.713h-1.446c-.276 0-.5-.224-.5-.5s.224-.5.5-.5h1.446c.276 0 .5.224.5.5S21.526 47.713 21.25 47.713zM25.304 47.713h-2.546c-.276 0-.5-.224-.5-.5s.224-.5.5-.5h2.546c.276 0 .5.224.5.5S25.58 47.713 25.304 47.713zM25.304 49.578h-9.616c-.276 0-.5-.224-.5-.5s.224-.5.5-.5h9.616c.276 0 .5.224.5.5S25.58 49.578 25.304 49.578zM13.956 49.578h-.58c-.276 0-.5-.224-.5-.5s.224-.5.5-.5h.58c.276 0 .5.224.5.5S14.233 49.578 13.956 49.578zM11.579 49.578h-1.456c-.276 0-.5-.224-.5-.5s.224-.5.5-.5h1.456c.276 0 .5.224.5.5S11.856 49.578 11.579 49.578zM20.715 45.848h-5.027c-.276 0-.5-.224-.5-.5s.224-.5.5-.5h5.027c.276 0 .5.224.5.5S20.991 45.848 20.715 45.848zM20.715 43.983h-1.257c-.276 0-.5-.224-.5-.5s.224-.5.5-.5h1.257c.276 0 .5.224.5.5S20.991 43.983 20.715 43.983zM17.447 51.443h-1.759c-.276 0-.5-.224-.5-.5s.224-.5.5-.5h1.759c.276 0 .5.224.5.5S17.723 51.443 17.447 51.443zM74.394 25.392h-10.03c-.276 0-.5-.224-.5-.5s.224-.5.5-.5h10.03c.276 0 .5.224.5.5S74.671 25.392 74.394 25.392zM77.276 25.392H75.83c-.276 0-.5-.224-.5-.5s.224-.5.5-.5h1.446c.276 0 .5.224.5.5S77.552 25.392 77.276 25.392zM81.33 25.392h-2.546c-.276 0-.5-.224-.5-.5s.224-.5.5-.5h2.546c.276 0 .5.224.5.5S81.607 25.392 81.33 25.392zM81.33 27.257h-9.617c-.276 0-.5-.224-.5-.5s.224-.5.5-.5h9.617c.276 0 .5.224.5.5S81.607 27.257 81.33 27.257zM69.982 27.257h-.58c-.276 0-.5-.224-.5-.5s.224-.5.5-.5h.58c.276 0 .5.224.5.5S70.259 27.257 69.982 27.257zM67.605 27.257h-1.456c-.276 0-.5-.224-.5-.5s.224-.5.5-.5h1.456c.276 0 .5.224.5.5S67.882 27.257 67.605 27.257zM76.741 23.527h-5.028c-.276 0-.5-.224-.5-.5s.224-.5.5-.5h5.028c.276 0 .5.224.5.5S77.018 23.527 76.741 23.527zM76.741 21.662h-1.257c-.276 0-.5-.224-.5-.5s.224-.5.5-.5h1.257c.276 0 .5.224.5.5S77.018 21.662 76.741 21.662zM73.472 29.122h-1.759c-.276 0-.5-.224-.5-.5s.224-.5.5-.5h1.759c.276 0 .5.224.5.5S73.749 29.122 73.472 29.122z"/><path fill="#fdfcef" d="M74.965,48.546c0,0,10.616,0,10.681,0c2.452,0,4.439-1.987,4.439-4.439c0-2.139-1.513-3.924-3.527-4.344c0.023-0.187,0.039-0.377,0.039-0.57c0-2.539-2.058-4.598-4.597-4.598c-1.499,0-2.827,0.721-3.666,1.831c-0.215-2.826-2.739-5.007-5.693-4.646c-2.16,0.264-3.947,1.934-4.344,4.073c-0.127,0.686-0.114,1.352,0.013,1.977c-0.579-0.624-1.403-1.016-2.322-1.016c-1.68,0-3.052,1.308-3.16,2.961c-0.763-0.169-1.593-0.158-2.467,0.17c-1.671,0.627-2.861,2.2-2.93,3.983c-0.099,2.533,1.925,4.617,4.435,4.617c0.191,0,0.861,0,1.015,0h9.218"/><path fill="#472b29" d="M85.646,49.046H74.965c-0.276,0-0.5-0.224-0.5-0.5s0.224-0.5,0.5-0.5h10.681c2.172,0,3.939-1.767,3.939-3.939c0-1.854-1.316-3.476-3.129-3.855c-0.254-0.053-0.425-0.292-0.394-0.55c0.021-0.168,0.035-0.337,0.035-0.51c0-2.259-1.838-4.098-4.098-4.098c-1.292,0-2.483,0.595-3.267,1.632c-0.126,0.166-0.34,0.237-0.54,0.179c-0.2-0.059-0.342-0.235-0.358-0.442c-0.094-1.238-0.701-2.401-1.664-3.19c-0.973-0.798-2.207-1.149-3.471-0.997c-1.947,0.238-3.556,1.747-3.913,3.668c-0.112,0.601-0.108,1.201,0.011,1.786c0.045,0.22-0.062,0.442-0.261,0.545c-0.199,0.102-0.443,0.06-0.595-0.104c-0.513-0.552-1.208-0.856-1.956-0.856c-1.4,0-2.569,1.095-2.661,2.494c-0.01,0.146-0.082,0.28-0.199,0.367c-0.117,0.087-0.268,0.118-0.408,0.088c-0.755-0.167-1.468-0.118-2.183,0.15c-1.498,0.562-2.545,1.982-2.606,3.535c-0.042,1.083,0.347,2.109,1.096,2.889c0.75,0.78,1.758,1.209,2.84,1.209h10.233c0.276,0,0.5,0.224,0.5,0.5s-0.224,0.5-0.5,0.5H61.866c-1.356,0-2.621-0.539-3.561-1.516c-0.939-0.977-1.428-2.263-1.375-3.621c0.076-1.949,1.384-3.73,3.254-4.432c0.72-0.27,1.464-0.363,2.221-0.279c0.362-1.655,1.842-2.884,3.582-2.884c0.603,0,1.194,0.151,1.72,0.431c0.004-0.327,0.036-0.655,0.097-0.983c0.436-2.346,2.399-4.188,4.775-4.478c1.54-0.191,3.039,0.244,4.226,1.216c0.899,0.737,1.543,1.742,1.847,2.851c0.919-0.807,2.094-1.256,3.347-1.256c2.811,0,5.098,2.287,5.098,5.098c0,0.064-0.001,0.128-0.004,0.192c2.048,0.628,3.492,2.547,3.492,4.723C90.585,46.83,88.369,49.046,85.646,49.046z"/><path fill="#fdfcef" d="M72.392,38.767c-1.642-0.108-3.055,1.026-3.157,2.533c-0.013,0.187-0.004,0.371,0.023,0.55c-0.317-0.358-0.786-0.6-1.324-0.636c-0.985-0.065-1.836,0.586-1.959,1.471c-0.179-0.049-0.366-0.082-0.56-0.095c-1.437-0.094-2.674,0.898-2.762,2.216"/><path fill="#472b29" d="M62.654,45.057c-0.006,0-0.012,0-0.017,0c-0.138-0.009-0.242-0.128-0.233-0.266c0.098-1.454,1.453-2.556,3.028-2.449c0.116,0.008,0.234,0.022,0.353,0.045c0.26-0.878,1.158-1.485,2.166-1.421c0.377,0.025,0.73,0.139,1.035,0.33c0-0.004,0-0.008,0-0.012c0.111-1.641,1.652-2.872,3.423-2.765c0.138,0.009,0.242,0.128,0.233,0.266c-0.009,0.138-0.131,0.243-0.266,0.233c-1.514-0.102-2.799,0.933-2.891,2.3c-0.011,0.165-0.004,0.332,0.021,0.496c0.017,0.109-0.041,0.217-0.141,0.264c-0.098,0.047-0.219,0.023-0.293-0.061c-0.285-0.321-0.705-0.522-1.154-0.552c-0.846-0.056-1.589,0.496-1.695,1.256c-0.01,0.071-0.05,0.134-0.109,0.174c-0.06,0.04-0.135,0.051-0.203,0.033c-0.173-0.046-0.345-0.076-0.511-0.086c-1.303-0.085-2.417,0.805-2.497,1.983C62.894,44.956,62.784,45.057,62.654,45.057z"/><path fill="#fdfcef" d="M87.443,40.283c-1.543-0.727-3.327-0.213-3.985,1.15c-0.082,0.169-0.142,0.344-0.182,0.521"/><path fill="#472b29" d="M83.275,42.204c-0.018,0-0.037-0.002-0.056-0.006c-0.135-0.031-0.219-0.165-0.188-0.299c0.045-0.199,0.113-0.393,0.201-0.574c0.716-1.484,2.651-2.054,4.317-1.268c0.125,0.059,0.179,0.208,0.12,0.333c-0.059,0.126-0.209,0.177-0.333,0.12c-1.417-0.667-3.056-0.204-3.654,1.033c-0.072,0.148-0.127,0.305-0.164,0.468C83.492,42.125,83.389,42.204,83.275,42.204z"/><path fill="#babce2" d="M65.26,69.974H39.538c-3.766,0-6.847-3.081-6.847-6.847V37.405c0-3.766,3.081-6.847,6.847-6.847H65.26c3.766,0,6.847,3.081,6.847,6.847v25.722C72.108,66.893,69.026,69.974,65.26,69.974z"/><path fill="#472b29" d="M65.261,70.675H39.538c-4.162,0-7.548-3.386-7.548-7.547V37.405c0-4.162,3.386-7.547,7.548-7.547h25.722c4.162,0,7.547,3.386,7.547,7.547v25.722C72.808,67.289,69.422,70.675,65.261,70.675z M39.538,31.258c-3.39,0-6.147,2.757-6.147,6.147v25.722c0,3.39,2.758,6.147,6.147,6.147h25.722c3.39,0,6.147-2.757,6.147-6.147V37.405c0-3.39-2.757-6.147-6.147-6.147H39.538z"/><path fill="#fdfcee" d="M63.743,67.159H41.055c-3.052,0-5.549-2.497-5.549-5.549V38.922c0-3.052,2.497-5.549,5.549-5.549h22.688c3.052,0,5.549,2.497,5.549,5.549V61.61C69.292,64.662,66.795,67.159,63.743,67.159z"/><path fill="#472b29" d="M64.158,67.509H40.64c-3.024,0-5.484-2.46-5.484-5.484V38.508c0-3.024,2.46-5.484,5.484-5.484h22.395c0.193,0,0.35,0.157,0.35,0.35s-0.157,0.35-0.35,0.35H40.64c-2.638,0-4.784,2.146-4.784,4.784v23.517c0,2.638,2.146,4.784,4.784,4.784h23.518c2.638,0,4.784-2.146,4.784-4.784v-13.01c0-0.193,0.157-0.35,0.35-0.35s0.35,0.157,0.35,0.35v13.01C69.642,65.049,67.182,67.509,64.158,67.509z"/><path fill="#472b29" d="M69.292 47.488c-.193 0-.35-.157-.35-.35v-2.503c0-.193.157-.35.35-.35s.35.157.35.35v2.503C69.642 47.331 69.486 47.488 69.292 47.488zM69.292 43.734c-.193 0-.35-.157-.35-.35v-1.251c0-.193.157-.35.35-.35s.35.157.35.35v1.251C69.642 43.577 69.486 43.734 69.292 43.734z"/><path fill="#8a8dce" d="M62.446,43.317c-0.27-0.697-0.631-1.287-1.221-1.877c-0.59-0.59-1.18-0.951-1.877-1.221c-0.672-0.262-1.45-0.443-2.573-0.492c-1.131-0.049-1.491-0.066-4.376-0.066c-2.885,0-3.245,0.008-4.376,0.066c-1.131,0.049-1.901,0.229-2.573,0.492c-0.697,0.27-1.287,0.631-1.877,1.221s-0.951,1.18-1.221,1.877c-0.262,0.672-0.443,1.45-0.492,2.573c-0.049,1.131-0.066,1.491-0.066,4.376s0.008,3.245,0.066,4.376c0.049,1.131,0.229,1.901,0.492,2.573c0.27,0.697,0.631,1.287,1.221,1.877s1.18,0.951,1.877,1.221c0.672,0.262,1.45,0.443,2.573,0.492c1.131,0.049,1.491,0.066,4.376,0.066c2.885,0,3.245-0.008,4.376-0.066c1.131-0.049,1.901-0.229,2.573-0.492c0.697-0.27,1.287-0.631,1.877-1.221s0.951-1.18,1.221-1.877c0.262-0.672,0.443-1.45,0.492-2.573c0.049-1.131,0.066-1.491,0.066-4.376s-0.008-3.245-0.066-4.376C62.888,44.759,62.708,43.989,62.446,43.317z"/><path fill="#472b29" d="M52.399,61.22c-2.869,0-3.245-0.017-4.364-0.064c-1.09-0.048-1.918-0.207-2.712-0.517c-0.789-0.306-1.404-0.707-1.997-1.3c-0.593-0.593-0.994-1.209-1.299-1.998c-0.311-0.795-0.469-1.623-0.515-2.685c-0.058-1.136-0.066-1.491-0.066-4.391c0-2.872,0.017-3.249,0.065-4.368c0.047-1.085,0.206-1.913,0.516-2.708c0.305-0.787,0.706-1.403,1.299-1.997c0.593-0.593,1.208-0.994,1.997-1.3c0.795-0.31,1.623-0.469,2.685-0.515c1.138-0.058,1.492-0.066,4.391-0.066c2.883,0,3.261,0.017,4.38,0.065c1.075,0.047,1.903,0.206,2.696,0.516c0.789,0.307,1.405,0.708,1.997,1.3c0.593,0.593,0.994,1.209,1.3,1.997l0,0c0.31,0.795,0.469,1.623,0.515,2.685c0.058,1.136,0.066,1.491,0.066,4.391c0,2.872-0.017,3.249-0.065,4.368c-0.047,1.087-0.206,1.915-0.516,2.709c-0.306,0.788-0.707,1.403-1.3,1.997c-0.592,0.592-1.208,0.993-1.997,1.3c-0.794,0.31-1.623,0.469-2.685,0.515C55.653,61.212,55.298,61.22,52.399,61.22z M52.399,40.012c-2.882,0-3.233,0.008-4.358,0.065c-0.984,0.043-1.743,0.187-2.464,0.468c-0.694,0.27-1.235,0.622-1.756,1.143c-0.521,0.521-0.874,1.062-1.142,1.755c-0.281,0.721-0.425,1.48-0.468,2.461c-0.049,1.131-0.065,1.504-0.065,4.361c0,2.883,0.008,3.235,0.065,4.358c0.042,0.983,0.187,1.743,0.468,2.463c0.269,0.694,0.621,1.235,1.142,1.756c0.521,0.521,1.062,0.873,1.756,1.143c0.72,0.281,1.479,0.425,2.461,0.468c1.135,0.049,1.507,0.065,4.361,0.065c2.882,0,3.233-0.008,4.358-0.065c0.985-0.043,1.744-0.188,2.463-0.468c0.695-0.27,1.236-0.622,1.756-1.143c0.521-0.521,0.874-1.062,1.143-1.755c0.281-0.72,0.425-1.479,0.468-2.462c0.049-1.131,0.065-1.504,0.065-4.361c0-2.883-0.008-3.235-0.065-4.358c-0.042-0.984-0.187-1.743-0.468-2.463c0,0,0,0,0-0.001c-0.269-0.693-0.622-1.234-1.143-1.755c-0.52-0.521-1.062-0.873-1.756-1.143c-0.719-0.281-1.478-0.425-2.461-0.468C55.641,40.029,55.267,40.012,52.399,40.012z"/><path fill="#fdfcef" d="M52.391,44.817c-3.007,0-5.449,2.442-5.449,5.449s2.442,5.449,5.449,5.449s5.449-2.442,5.449-5.449S55.398,44.817,52.391,44.817z"/><path fill="#472b29" d="M52.391,56.066c-3.198,0-5.799-2.602-5.799-5.8s2.602-5.799,5.799-5.799s5.8,2.602,5.8,5.799S55.589,56.066,52.391,56.066z M52.391,45.167c-2.812,0-5.099,2.288-5.099,5.099c0,2.812,2.288,5.1,5.099,5.1c2.812,0,5.1-2.288,5.1-5.1C57.491,47.454,55.203,45.167,52.391,45.167z"/><path fill="#fdfcef" d="M58.254 42.964A1.27 1.27 0 1 0 58.254 45.504000000000005A1.27 1.27 0 1 0 58.254 42.964Z"/><path fill="#472b29" d="M58.254,45.854c-0.893,0-1.62-0.727-1.62-1.62c0-0.894,0.727-1.621,1.62-1.621c0.894,0,1.621,0.727,1.621,1.621C59.874,45.127,59.147,45.854,58.254,45.854z M58.254,43.314c-0.507,0-0.92,0.413-0.92,0.92c0,0.507,0.413,0.92,0.92,0.92c0.508,0,0.92-0.413,0.92-0.92C59.174,43.726,58.762,43.314,58.254,43.314z"/><path fill="#fdfcef" d="M42.126,72.487c1.71,0,3.194,0,3.215,0c1.916,0,3.469-1.52,3.469-3.396c0-1.636-1.182-3.001-2.756-3.323c0.018-0.143,0.031-0.288,0.031-0.436c0-1.942-1.609-3.517-3.593-3.517c-1.172,0-2.209,0.551-2.865,1.401c-0.168-2.162-2.141-3.83-4.45-3.554c-1.688,0.202-3.084,1.479-3.395,3.116c-0.1,0.525-0.089,1.034,0.01,1.512c-0.453-0.477-1.097-0.777-1.814-0.777c-1.313,0-2.385,1.001-2.47,2.265c-0.596-0.129-1.245-0.121-1.928,0.13c-1.306,0.48-2.236,1.683-2.29,3.047c-0.077,1.937,1.504,3.532,3.467,3.532c0.149,0,0.673,0,0.794,0h7.204 M36.245,72.487h0.327"/><path fill="#472b29" d="M45.341,72.987h-3.215c-0.276,0-0.5-0.224-0.5-0.5s0.224-0.5,0.5-0.5h3.215c1.637,0,2.969-1.299,2.969-2.896c0-1.363-0.991-2.554-2.356-2.833c-0.256-0.052-0.429-0.293-0.396-0.552c0.016-0.123,0.027-0.247,0.027-0.374c0-1.664-1.388-3.017-3.093-3.017c-0.977,0-1.877,0.44-2.47,1.207c-0.126,0.164-0.341,0.233-0.539,0.173c-0.198-0.059-0.339-0.234-0.355-0.44c-0.071-0.913-0.507-1.741-1.227-2.332c-0.742-0.609-1.687-0.883-2.665-0.764c-1.475,0.177-2.694,1.292-2.963,2.712c-0.084,0.443-0.081,0.887,0.008,1.317c0.046,0.219-0.06,0.441-0.257,0.545c-0.198,0.104-0.44,0.063-0.595-0.099c-0.38-0.401-0.896-0.622-1.452-0.622c-1.038,0-1.903,0.79-1.971,1.799c-0.01,0.145-0.082,0.278-0.198,0.366c-0.116,0.088-0.265,0.119-0.406,0.089c-0.573-0.125-1.111-0.087-1.65,0.111c-1.129,0.415-1.917,1.459-1.963,2.598c-0.031,0.782,0.252,1.526,0.799,2.096c0.568,0.591,1.337,0.916,2.167,0.916h7.998c0.276,0,0.5,0.224,0.5,0.5s-0.224,0.5-0.5,0.5h-7.998c-1.089,0-2.142-0.446-2.888-1.224c-0.737-0.767-1.12-1.771-1.078-2.828c0.061-1.538,1.113-2.943,2.617-3.496c0.548-0.201,1.115-0.276,1.688-0.228c0.332-1.268,1.507-2.198,2.882-2.198c0.431,0,0.854,0.094,1.24,0.269c0.011-0.199,0.035-0.397,0.073-0.597c0.35-1.844,1.924-3.291,3.827-3.519c1.249-0.149,2.462,0.2,3.418,0.984c0.668,0.548,1.147,1.254,1.399,2.047c0.717-0.568,1.61-0.882,2.557-0.882c2.257,0,4.093,1.802,4.093,4.017c0,0.02,0,0.04,0,0.06c1.603,0.52,2.726,2.011,2.726,3.7C49.31,71.239,47.53,72.987,45.341,72.987z M36.571,72.987h-0.327c-0.276,0-0.5-0.224-0.5-0.5s0.224-0.5,0.5-0.5h0.327c0.276,0,0.5,0.224,0.5,0.5S36.847,72.987,36.571,72.987z"/><path fill="#472b29" d="M43.79 67.695c-.018 0-.036-.002-.055-.006-.135-.03-.219-.164-.189-.299.035-.153.087-.301.157-.441.555-1.123 2.084-1.537 3.409-.924.125.058.18.207.122.332-.058.125-.206.179-.332.122-1.081-.501-2.315-.19-2.751.692-.052.104-.091.214-.116.328C44.008 67.615 43.905 67.695 43.79 67.695zM39.106 72.987h-1.005c-.276 0-.5-.224-.5-.5s.224-.5.5-.5h1.005c.276 0 .5.224.5.5S39.382 72.987 39.106 72.987z"/></svg>