<svg fill="#000000" xmlns="http://www.w3.org/2000/svg" viewBox="0 0 64 64" width="64px" height="64px"><path d="M 13 6 C 9.140625 6 6 9.140625 6 13 L 6 51 C 6 54.859375 9.140625 58 13 58 L 51 58 C 54.859375 58 58 54.859375 58 51 L 58 13 C 58 9.140625 54.859375 6 51 6 Z M 13 8 L 14 8 L 14 11 C 14 11.554688 14.449219 12 15 12 C 15.550781 12 16 11.554688 16 11 L 16 8 L 51 8 C 53.757813 8 56 10.242188 56 13 L 56 22 L 42 22 C 41.9375 22 41.773438 21.992188 41.75 21.96875 C 39.230469 19.515625 35.789063 18 32 18 C 28.195313 18 24.746094 19.527344 22.21875 22 C 22.207031 22.011719 22.0625 22 22 22 L 8 22 L 8 13 C 8 10.242188 10.242188 8 13 8 Z M 47 10 C 45.347656 10 44 11.347656 44 13 L 44 15 C 44 16.652344 45.347656 18 47 18 L 51 18 C 52.652344 18 54 16.652344 54 15 L 54 13 C 54 11.347656 52.652344 10 51 10 Z M 47 12 L 51 12 C 51.550781 12 52 12.449219 52 13 L 52 15 C 52 15.550781 51.550781 16 51 16 L 47 16 C 46.449219 16 46 15.550781 46 15 L 46 13 C 46 12.449219 46.449219 12 47 12 Z M 15 14 C 14.449219 14 14 14.445313 14 15 L 14 19 C 14 19.554688 14.449219 20 15 20 C 15.550781 20 16 19.554688 16 19 L 16 15 C 16 14.445313 15.550781 14 15 14 Z M 32 20 C 38.617188 20 44 25.382813 44 32 C 44 38.617188 38.617188 44 32 44 C 25.382813 44 20 38.617188 20 32 C 20 25.382813 25.382813 20 32 20 Z M 32 22 C 26.484375 22 22 26.484375 22 32 C 22 37.515625 26.484375 42 32 42 C 37.515625 42 42 37.515625 42 32 C 42 26.484375 37.515625 22 32 22 Z M 8 24 L 20.527344 24 C 18.9375 26.269531 18 29.027344 18 32 C 18 39.71875 24.28125 46 32 46 C 39.71875 46 46 39.71875 46 32 C 46 29.027344 45.0625 26.269531 43.472656 24 L 56 24 L 56 51 C 56 53.757813 53.757813 56 51 56 L 13 56 C 10.242188 56 8 53.757813 8 51 Z M 32 24 C 36.410156 24 40 27.589844 40 32 C 40 36.410156 36.410156 40 32 40 C 27.589844 40 24 36.410156 24 32 C 24 27.589844 27.589844 24 32 24 Z M 12 49 C 11.449219 49 11 49.445313 11 50 L 11 52 C 11 52.554688 11.449219 53 12 53 C 12.550781 53 13 52.554688 13 52 L 13 50 C 13 49.445313 12.550781 49 12 49 Z M 17 49 C 16.449219 49 16 49.445313 16 50 L 16 52 C 16 52.554688 16.449219 53 17 53 C 17.550781 53 18 52.554688 18 52 L 18 50 C 18 49.445313 17.550781 49 17 49 Z M 22 49 C 21.449219 49 21 49.445313 21 50 L 21 52 C 21 52.554688 21.449219 53 22 53 C 22.550781 53 23 52.554688 23 52 L 23 50 C 23 49.445313 22.550781 49 22 49 Z M 27 49 C 26.449219 49 26 49.445313 26 50 L 26 52 C 26 52.554688 26.449219 53 27 53 C 27.550781 53 28 52.554688 28 52 L 28 50 C 28 49.445313 27.550781 49 27 49 Z M 32 49 C 31.449219 49 31 49.445313 31 50 L 31 52 C 31 52.554688 31.449219 53 32 53 C 32.550781 53 33 52.554688 33 52 L 33 50 C 33 49.445313 32.550781 49 32 49 Z M 37 49 C 36.449219 49 36 49.445313 36 50 L 36 52 C 36 52.554688 36.449219 53 37 53 C 37.550781 53 38 52.554688 38 52 L 38 50 C 38 49.445313 37.550781 49 37 49 Z M 42 49 C 41.449219 49 41 49.445313 41 50 L 41 52 C 41 52.554688 41.449219 53 42 53 C 42.550781 53 43 52.554688 43 52 L 43 50 C 43 49.445313 42.550781 49 42 49 Z M 47 49 C 46.449219 49 46 49.445313 46 50 L 46 52 C 46 52.554688 46.449219 53 47 53 C 47.550781 53 48 52.554688 48 52 L 48 50 C 48 49.445313 47.550781 49 47 49 Z M 52 49 C 51.449219 49 51 49.445313 51 50 L 51 52 C 51 52.554688 51.449219 53 52 53 C 52.550781 53 53 52.554688 53 52 L 53 50 C 53 49.445313 52.550781 49 52 49 Z"/></svg>