<svg fill="#000000" xmlns="http://www.w3.org/2000/svg" viewBox="0 0 64 64" width="64px" height="64px"><path d="M 30.824219 0 C 22.800781 0 15.976563 5.46875 14.230469 13.296875 L 11.78125 24.269531 C 11.273438 26.53125 10.375 28.65625 9.101563 30.589844 L 7.4375 33.109375 C 6.945313 33.859375 6.8125 34.78125 7.074219 35.636719 C 7.339844 36.496094 7.96875 37.191406 8.804688 37.535156 C 10.097656 38.074219 11.558594 38.570313 13.148438 39.035156 L 8.257813 41.378906 C 4.457031 43.195313 2 47.089844 2 51.300781 L 2 59 C 2 60.652344 3.347656 62 5 62 L 59 62 C 60.652344 62 62 60.652344 62 59 L 62 51.300781 C 62 47.089844 59.546875 43.195313 55.746094 41.378906 L 50.808594 39.015625 C 52.425781 38.550781 53.90625 38.058594 55.199219 37.53125 C 56.027344 37.1875 56.65625 36.503906 56.925781 35.644531 C 57.191406 34.785156 57.0625 33.859375 56.570313 33.109375 L 54.710938 30.261719 C 53.476563 28.375 52.597656 26.304688 52.09375 24.109375 L 49.824219 14.203125 C 48.136719 6.847656 41.75 1.472656 34.230469 1.042969 C 33.207031 0.359375 32.035156 0 30.824219 0 Z M 30.824219 2 C 31.707031 2 32.5625 2.285156 33.296875 2.828125 C 33.457031 2.949219 33.652344 3.019531 33.851563 3.023438 C 40.597656 3.292969 46.367188 8.074219 47.875 14.648438 L 50.144531 24.554688 C 50.703125 26.984375 51.675781 29.269531 53.035156 31.355469 L 54.894531 34.199219 C 55.0625 34.453125 55.105469 34.761719 55.015625 35.050781 C 54.964844 35.21875 54.820313 35.523438 54.4375 35.675781 C 52.652344 36.410156 50.492188 37.082031 48.03125 37.6875 L 42.484375 35.035156 C 43.550781 33.378906 44.417969 31.5625 45.015625 29.734375 C 46.242188 29.273438 47.363281 27.773438 47.898438 25.777344 C 48.214844 24.597656 48.277344 23.410156 48.078125 22.433594 C 47.828125 21.214844 47.195313 20.410156 46.296875 20.171875 C 46.171875 20.136719 46.023438 20.109375 45.855469 20.105469 C 45.746094 19.304688 45.570313 18.515625 45.328125 17.75 C 45.15625 17.222656 44.597656 16.929688 44.070313 17.097656 C 43.542969 17.265625 43.253906 17.828125 43.421875 18.355469 C 43.734375 19.347656 43.921875 20.382813 43.96875 21.433594 C 43.988281 21.789063 44.195313 22.113281 44.511719 22.277344 C 44.832031 22.4375 45.210938 22.421875 45.511719 22.222656 C 45.691406 22.109375 45.78125 22.105469 45.777344 22.105469 C 45.832031 22.121094 46.011719 22.324219 46.117188 22.832031 C 46.253906 23.503906 46.199219 24.386719 45.96875 25.261719 C 45.472656 27.101563 44.527344 27.878906 44.234375 27.878906 C 43.792969 27.878906 43.402344 28.171875 43.277344 28.59375 C 41.589844 34.261719 37.179688 40 32 40 C 26.820313 40 22.410156 34.261719 20.722656 28.59375 C 20.597656 28.171875 20.210938 27.878906 19.765625 27.878906 C 19.472656 27.878906 18.527344 27.101563 18.035156 25.261719 C 17.800781 24.386719 17.746094 23.503906 17.882813 22.832031 C 17.988281 22.324219 18.171875 22.117188 18.21875 22.105469 C 18.21875 22.105469 18.304688 22.105469 18.488281 22.222656 C 18.789063 22.417969 19.167969 22.4375 19.488281 22.277344 C 19.804688 22.113281 20.015625 21.792969 20.03125 21.433594 C 20.078125 20.390625 20.261719 19.359375 20.578125 18.371094 C 20.742188 17.84375 20.449219 17.277344 19.921875 17.113281 C 19.398438 16.941406 18.835938 17.238281 18.671875 17.765625 C 18.429688 18.53125 18.25 19.3125 18.144531 20.105469 C 17.976563 20.113281 17.832031 20.136719 17.707031 20.171875 C 16.804688 20.410156 16.171875 21.214844 15.921875 22.433594 C 15.722656 23.410156 15.789063 24.597656 16.105469 25.777344 C 16.636719 27.773438 17.761719 29.273438 18.984375 29.734375 C 19.585938 31.5625 20.449219 33.378906 21.519531 35.035156 L 15.910156 37.71875 C 13.503906 37.117188 11.367188 36.4375 9.570313 35.6875 C 9.289063 35.574219 9.074219 35.339844 8.984375 35.050781 C 8.933594 34.882813 8.882813 34.550781 9.109375 34.207031 L 10.769531 31.6875 C 12.175781 29.546875 13.175781 27.199219 13.734375 24.703125 L 16.183594 13.730469 C 17.722656 6.824219 23.746094 2 30.824219 2 Z M 26.171875 12.125 C 25.582031 12.179688 25.023438 12.496094 24.683594 13.015625 L 23.078125 15.449219 C 22.773438 15.910156 22.902344 16.53125 23.363281 16.835938 C 23.53125 16.945313 23.722656 17 23.910156 17 C 24.238281 17 24.554688 16.84375 24.75 16.550781 L 26.351563 14.117188 L 27.914063 14.878906 C 30.761719 16.269531 33.941406 17 37.113281 17 L 39.667969 17 C 40.21875 17 40.667969 16.554688 40.667969 16 C 40.667969 15.445313 40.21875 15 39.667969 15 L 37.113281 15 C 34.246094 15 31.367188 14.335938 28.792969 13.078125 L 27.226563 12.316406 C 26.886719 12.152344 26.523438 12.09375 26.171875 12.125 Z M 41.296875 36.6875 L 54.882813 43.183594 C 57.992188 44.671875 60 47.855469 60 51.300781 L 60 59 C 60 59.550781 59.550781 60 59 60 L 5 60 C 4.449219 60 4 59.550781 4 59 L 4 51.300781 C 4 47.859375 6.007813 44.667969 9.117188 43.183594 L 22.703125 36.6875 C 25.160156 39.789063 28.402344 42 32 42 C 35.597656 42 38.839844 39.789063 41.296875 36.6875 Z M 22.140625 42.011719 C 21.753906 41.953125 21.355469 42.128906 21.140625 42.484375 C 20.859375 42.960938 21.011719 43.574219 21.484375 43.859375 L 31.484375 49.859375 C 31.644531 49.953125 31.820313 50 32 50 C 32.179688 50 32.355469 49.953125 32.515625 49.859375 L 42.515625 43.859375 C 42.988281 43.574219 43.140625 42.957031 42.859375 42.484375 C 42.574219 42.011719 41.960938 41.859375 41.484375 42.140625 L 32 47.832031 L 22.515625 42.140625 C 22.398438 42.070313 22.269531 42.027344 22.140625 42.011719 Z M 32 52 C 31.449219 52 31 52.445313 31 53 L 31 57 C 31 57.554688 31.449219 58 32 58 C 32.550781 58 33 57.554688 33 57 L 33 53 C 33 52.445313 32.550781 52 32 52 Z M 7 54 C 6.449219 54 6 54.445313 6 55 L 6 57 C 6 57.554688 6.449219 58 7 58 C 7.550781 58 8 57.554688 8 57 L 8 55 C 8 54.445313 7.550781 54 7 54 Z M 12 54 C 11.449219 54 11 54.445313 11 55 L 11 57 C 11 57.554688 11.449219 58 12 58 C 12.550781 58 13 57.554688 13 57 L 13 55 C 13 54.445313 12.550781 54 12 54 Z M 17 54 C 16.449219 54 16 54.445313 16 55 L 16 57 C 16 57.554688 16.449219 58 17 58 C 17.550781 58 18 57.554688 18 57 L 18 55 C 18 54.445313 17.550781 54 17 54 Z M 22 54 C 21.449219 54 21 54.445313 21 55 L 21 57 C 21 57.554688 21.449219 58 22 58 C 22.550781 58 23 57.554688 23 57 L 23 55 C 23 54.445313 22.550781 54 22 54 Z M 27 54 C 26.449219 54 26 54.445313 26 55 L 26 57 C 26 57.554688 26.449219 58 27 58 C 27.550781 58 28 57.554688 28 57 L 28 55 C 28 54.445313 27.550781 54 27 54 Z M 37 54 C 36.449219 54 36 54.445313 36 55 L 36 57 C 36 57.554688 36.449219 58 37 58 C 37.550781 58 38 57.554688 38 57 L 38 55 C 38 54.445313 37.550781 54 37 54 Z M 42 54 C 41.449219 54 41 54.445313 41 55 L 41 57 C 41 57.554688 41.449219 58 42 58 C 42.550781 58 43 57.554688 43 57 L 43 55 C 43 54.445313 42.550781 54 42 54 Z M 47 54 C 46.449219 54 46 54.445313 46 55 L 46 57 C 46 57.554688 46.449219 58 47 58 C 47.550781 58 48 57.554688 48 57 L 48 55 C 48 54.445313 47.550781 54 47 54 Z M 52 54 C 51.449219 54 51 54.445313 51 55 L 51 57 C 51 57.554688 51.449219 58 52 58 C 52.550781 58 53 57.554688 53 57 L 53 55 C 53 54.445313 52.550781 54 52 54 Z M 57 54 C 56.449219 54 56 54.445313 56 55 L 56 57 C 56 57.554688 56.449219 58 57 58 C 57.550781 58 58 57.554688 58 57 L 58 55 C 58 54.445313 57.550781 54 57 54 Z"/></svg>